<svg width="577" height="463" viewBox="0 0 577 463" fill="none" xmlns="http://www.w3.org/2000/svg">
<rect width="577" height="463" fill="white"/>
<circle cx="245.948" cy="307.432" r="25.4484" fill="#FC6434" stroke="black" stroke-width="5"/>
<circle cx="328.551" cy="226.692" r="25.4484" fill="#FCE834" stroke="black" stroke-width="5"/>
<circle cx="330.415" cy="108.688" r="25.4484" fill="#FCE834" stroke="black" stroke-width="5"/>
<circle cx="245.948" cy="27.9484" r="25.4484" fill="#74FC34" stroke="black" stroke-width="5"/>
<line x1="264.055" y1="288.274" x2="308.151" y2="244.178" stroke="black" stroke-width="5"/>
<line y1="-2.5" x2="62.3616" y2="-2.5" transform="matrix(-0.707107 -0.707107 -0.707107 0.707107 309.919 91.298)" stroke="black" stroke-width="5"/>
<line x1="243.448" y1="280.726" x2="243.448" y2="55.8967" stroke="black" stroke-width="5"/>
<line x1="327.915" y1="198.744" x2="327.915" y2="136.637" stroke="black" stroke-width="5"/>
<path d="M150.023 400V374.406H157.635C158.689 374.418 159.721 374.559 160.729 374.828C161.736 375.086 162.633 375.49 163.418 376.041C164.203 376.592 164.83 377.295 165.299 378.15C165.768 379.006 165.996 380.031 165.984 381.227C165.973 381.895 165.861 382.504 165.65 383.055C165.451 383.605 165.17 384.104 164.807 384.549C164.455 384.982 164.039 385.363 163.559 385.691C163.078 386.02 162.568 386.301 162.029 386.535C162.709 386.734 163.33 387.021 163.893 387.396C164.467 387.76 164.959 388.205 165.369 388.732C165.779 389.248 166.096 389.834 166.318 390.49C166.553 391.146 166.67 391.855 166.67 392.617C166.682 393.812 166.453 394.867 165.984 395.781C165.516 396.695 164.889 397.463 164.104 398.084C163.318 398.693 162.41 399.162 161.379 399.49C160.359 399.818 159.305 399.988 158.215 400H150.023ZM153.293 388.029V397.24H158.303C158.982 397.229 159.627 397.117 160.236 396.906C160.846 396.684 161.385 396.379 161.854 395.992C162.322 395.605 162.691 395.131 162.961 394.568C163.242 394.006 163.383 393.367 163.383 392.652C163.395 391.926 163.271 391.281 163.014 390.719C162.768 390.156 162.422 389.682 161.977 389.295C161.531 388.896 161.01 388.592 160.412 388.381C159.814 388.17 159.17 388.053 158.479 388.029H153.293ZM153.293 385.322H157.828C158.438 385.311 159.035 385.217 159.621 385.041C160.207 384.854 160.729 384.59 161.186 384.25C161.643 383.898 162.012 383.471 162.293 382.967C162.574 382.463 162.715 381.877 162.715 381.209C162.715 380.494 162.574 379.885 162.293 379.381C162.023 378.877 161.654 378.467 161.186 378.15C160.729 377.822 160.195 377.582 159.586 377.43C158.988 377.277 158.373 377.195 157.74 377.184H153.293V385.322ZM184.143 380.629C184.447 380.629 184.764 380.641 185.092 380.664C185.42 380.676 185.73 380.705 186.023 380.752C186.328 380.787 186.604 380.834 186.85 380.893C187.107 380.951 187.318 381.016 187.482 381.086L187.043 384.268C186.41 384.127 185.807 384.027 185.232 383.969C184.67 383.898 184.078 383.863 183.457 383.863C181.934 383.863 180.697 384.209 179.748 384.9C178.811 385.592 178.119 386.559 177.674 387.801V400H174.404V380.98H177.498L177.656 384.004C178.43 382.961 179.355 382.141 180.434 381.543C181.523 380.934 182.76 380.629 184.143 380.629ZM205.799 400C205.67 399.754 205.564 399.449 205.482 399.086C205.412 398.711 205.359 398.324 205.324 397.926C204.996 398.254 204.627 398.564 204.217 398.857C203.818 399.15 203.373 399.408 202.881 399.631C202.4 399.854 201.885 400.029 201.334 400.158C200.783 400.287 200.197 400.352 199.576 400.352C198.568 400.352 197.654 400.205 196.834 399.912C196.025 399.619 195.334 399.227 194.76 398.734C194.197 398.23 193.758 397.639 193.441 396.959C193.137 396.268 192.984 395.523 192.984 394.727C192.984 393.684 193.189 392.77 193.6 391.984C194.021 391.199 194.613 390.549 195.375 390.033C196.137 389.506 197.051 389.113 198.117 388.855C199.195 388.598 200.396 388.469 201.721 388.469H205.271V386.975C205.271 386.4 205.166 385.885 204.955 385.428C204.744 384.971 204.445 384.584 204.059 384.268C203.672 383.939 203.197 383.688 202.635 383.512C202.084 383.336 201.463 383.248 200.771 383.248C200.127 383.248 199.547 383.33 199.031 383.494C198.527 383.658 198.1 383.875 197.748 384.145C197.396 384.414 197.121 384.736 196.922 385.111C196.734 385.475 196.641 385.855 196.641 386.254H193.371C193.383 385.562 193.559 384.883 193.898 384.215C194.25 383.547 194.748 382.949 195.393 382.422C196.049 381.883 196.84 381.449 197.766 381.121C198.703 380.793 199.764 380.629 200.947 380.629C202.025 380.629 203.027 380.764 203.953 381.033C204.879 381.291 205.676 381.689 206.344 382.229C207.023 382.756 207.557 383.418 207.943 384.215C208.33 385.012 208.523 385.943 208.523 387.01V395.852C208.523 396.484 208.582 397.158 208.699 397.873C208.816 398.576 208.98 399.191 209.191 399.719V400H205.799ZM200.051 397.521C200.684 397.521 201.275 397.439 201.826 397.275C202.377 397.111 202.875 396.895 203.32 396.625C203.777 396.355 204.17 396.051 204.498 395.711C204.826 395.359 205.084 394.996 205.271 394.621V390.771H202.248C200.35 390.771 198.873 391.053 197.818 391.615C196.764 392.178 196.236 393.062 196.236 394.27C196.236 394.738 196.312 395.172 196.465 395.57C196.629 395.969 196.869 396.314 197.186 396.607C197.502 396.889 197.9 397.111 198.381 397.275C198.861 397.439 199.418 397.521 200.051 397.521ZM217.84 380.98L218.068 383.793C218.76 382.809 219.609 382.041 220.617 381.49C221.625 380.928 222.75 380.641 223.992 380.629C224.988 380.629 225.891 380.77 226.699 381.051C227.52 381.332 228.217 381.771 228.791 382.369C229.365 382.967 229.805 383.729 230.109 384.654C230.426 385.568 230.584 386.658 230.584 387.924V400H227.332V387.994C227.332 387.15 227.238 386.436 227.051 385.85C226.863 385.264 226.582 384.789 226.207 384.426C225.844 384.062 225.393 383.799 224.854 383.635C224.326 383.471 223.717 383.389 223.025 383.389C221.936 383.389 220.975 383.664 220.143 384.215C219.322 384.754 218.666 385.469 218.174 386.359V400H214.922V380.98H217.84ZM244.646 397.715C245.232 397.715 245.801 397.621 246.352 397.434C246.914 397.246 247.412 396.988 247.846 396.66C248.279 396.32 248.625 395.928 248.883 395.482C249.152 395.025 249.293 394.533 249.305 394.006H252.381C252.369 394.85 252.146 395.658 251.713 396.432C251.291 397.193 250.723 397.867 250.008 398.453C249.293 399.027 248.473 399.49 247.547 399.842C246.621 400.182 245.654 400.352 244.646 400.352C243.205 400.352 241.945 400.094 240.867 399.578C239.789 399.062 238.887 398.371 238.16 397.504C237.445 396.625 236.906 395.617 236.543 394.48C236.18 393.332 235.998 392.125 235.998 390.859V390.121C235.998 388.867 236.18 387.666 236.543 386.518C236.906 385.369 237.445 384.361 238.16 383.494C238.887 382.615 239.789 381.918 240.867 381.402C241.945 380.887 243.205 380.629 244.646 380.629C245.771 380.629 246.803 380.811 247.74 381.174C248.689 381.525 249.504 382.012 250.184 382.633C250.875 383.242 251.414 383.969 251.801 384.812C252.188 385.656 252.381 386.559 252.381 387.52H249.305C249.293 386.945 249.164 386.406 248.918 385.902C248.684 385.387 248.361 384.936 247.951 384.549C247.541 384.162 247.049 383.857 246.475 383.635C245.912 383.412 245.303 383.301 244.646 383.301C243.639 383.301 242.789 383.506 242.098 383.916C241.418 384.314 240.867 384.842 240.445 385.498C240.023 386.143 239.719 386.869 239.531 387.678C239.355 388.486 239.268 389.301 239.268 390.121V390.859C239.268 391.691 239.355 392.518 239.531 393.338C239.719 394.146 240.018 394.879 240.428 395.535C240.85 396.18 241.4 396.707 242.08 397.117C242.771 397.516 243.627 397.715 244.646 397.715ZM261.416 383.811C262.096 382.814 262.934 382.041 263.93 381.49C264.926 380.928 266.045 380.641 267.287 380.629C268.283 380.629 269.186 380.775 269.994 381.068C270.814 381.35 271.512 381.795 272.086 382.404C272.66 383.014 273.1 383.787 273.404 384.725C273.721 385.65 273.879 386.752 273.879 388.029V400H270.627V387.994C270.627 386.436 270.252 385.275 269.502 384.514C268.764 383.752 267.703 383.377 266.32 383.389C265.277 383.389 264.328 383.646 263.473 384.162C262.629 384.666 261.943 385.34 261.416 386.184V400H258.164V373H261.416V383.811ZM304.975 374.406L309.141 387.203L313.641 374.406H317.684V400H314.52V389.787L314.783 379.1L310.055 392.881H308.191L303.85 379.469L304.113 389.787V400H300.949V374.406H304.975ZM331.43 400.352C330.094 400.352 328.863 400.123 327.738 399.666C326.625 399.209 325.67 398.57 324.873 397.75C324.076 396.93 323.455 395.957 323.01 394.832C322.564 393.707 322.342 392.482 322.342 391.158V390.42C322.342 388.885 322.588 387.514 323.08 386.307C323.572 385.088 324.223 384.062 325.031 383.23C325.852 382.387 326.777 381.742 327.809 381.297C328.852 380.852 329.918 380.629 331.008 380.629C332.379 380.629 333.574 380.869 334.594 381.35C335.625 381.818 336.48 382.475 337.16 383.318C337.84 384.15 338.344 385.135 338.672 386.271C339.012 387.408 339.182 388.639 339.182 389.963V391.422H325.594C325.629 392.289 325.793 393.104 326.086 393.865C326.391 394.627 326.801 395.295 327.316 395.869C327.844 396.432 328.471 396.877 329.197 397.205C329.924 397.533 330.727 397.697 331.605 397.697C332.766 397.697 333.797 397.463 334.699 396.994C335.602 396.525 336.352 395.904 336.949 395.131L338.936 396.678C338.619 397.158 338.221 397.621 337.74 398.066C337.271 398.5 336.727 398.887 336.105 399.227C335.484 399.566 334.781 399.836 333.996 400.035C333.211 400.246 332.355 400.352 331.43 400.352ZM331.008 383.301C330.352 383.301 329.73 383.424 329.145 383.67C328.559 383.904 328.031 384.256 327.562 384.725C327.094 385.182 326.695 385.75 326.367 386.43C326.051 387.098 325.828 387.871 325.699 388.75H335.93V388.504C335.895 387.871 335.771 387.244 335.561 386.623C335.361 386.002 335.062 385.445 334.664 384.953C334.266 384.461 333.762 384.062 333.152 383.758C332.555 383.453 331.84 383.301 331.008 383.301ZM357.111 380.629C357.416 380.629 357.732 380.641 358.061 380.664C358.389 380.676 358.699 380.705 358.992 380.752C359.297 380.787 359.572 380.834 359.818 380.893C360.076 380.951 360.287 381.016 360.451 381.086L360.012 384.268C359.379 384.127 358.775 384.027 358.201 383.969C357.639 383.898 357.047 383.863 356.426 383.863C354.902 383.863 353.666 384.209 352.717 384.9C351.779 385.592 351.088 386.559 350.643 387.801V400H347.373V380.98H350.467L350.625 384.004C351.398 382.961 352.324 382.141 353.402 381.543C354.492 380.934 355.729 380.629 357.111 380.629ZM365.672 390.332C365.672 388.914 365.842 387.613 366.182 386.43C366.533 385.234 367.037 384.209 367.693 383.354C368.35 382.498 369.146 381.83 370.084 381.35C371.021 380.869 372.082 380.629 373.266 380.629C374.438 380.629 375.463 380.84 376.342 381.262C377.232 381.672 377.988 382.27 378.609 383.055L378.768 380.98H381.721V399.596C381.721 400.85 381.521 401.963 381.123 402.936C380.736 403.908 380.186 404.734 379.471 405.414C378.768 406.094 377.924 406.609 376.939 406.961C375.955 407.312 374.865 407.488 373.67 407.488C373.178 407.488 372.615 407.43 371.982 407.312C371.35 407.207 370.705 407.025 370.049 406.768C369.404 406.521 368.777 406.188 368.168 405.766C367.57 405.344 367.055 404.822 366.621 404.201L368.309 402.25C368.707 402.73 369.117 403.135 369.539 403.463C369.961 403.803 370.389 404.072 370.822 404.271C371.256 404.471 371.689 404.611 372.123 404.693C372.557 404.787 372.99 404.834 373.424 404.834C374.197 404.834 374.895 404.723 375.516 404.5C376.137 404.277 376.664 403.949 377.098 403.516C377.543 403.094 377.883 402.566 378.117 401.934C378.352 401.301 378.469 400.574 378.469 399.754V398.119C377.836 398.846 377.086 399.402 376.219 399.789C375.363 400.164 374.367 400.352 373.23 400.352C372.07 400.352 371.021 400.105 370.084 399.613C369.146 399.121 368.35 398.441 367.693 397.574C367.049 396.707 366.551 395.688 366.199 394.516C365.848 393.332 365.672 392.061 365.672 390.701V390.332ZM368.924 390.701C368.924 391.627 369.018 392.506 369.205 393.338C369.404 394.17 369.709 394.902 370.119 395.535C370.541 396.168 371.074 396.672 371.719 397.047C372.363 397.41 373.137 397.592 374.039 397.592C374.602 397.592 375.105 397.527 375.551 397.398C376.008 397.258 376.412 397.064 376.764 396.818C377.127 396.572 377.449 396.279 377.73 395.939C378.012 395.6 378.258 395.225 378.469 394.814V386.096C378.258 385.697 378.012 385.334 377.73 385.006C377.449 384.678 377.127 384.396 376.764 384.162C376.4 383.916 375.996 383.729 375.551 383.6C375.105 383.459 374.613 383.389 374.074 383.389C373.16 383.389 372.375 383.576 371.719 383.951C371.074 384.326 370.541 384.836 370.119 385.48C369.709 386.113 369.404 386.852 369.205 387.695C369.018 388.527 368.924 389.406 368.924 390.332V390.701ZM396.293 400.352C394.957 400.352 393.727 400.123 392.602 399.666C391.488 399.209 390.533 398.57 389.736 397.75C388.939 396.93 388.318 395.957 387.873 394.832C387.428 393.707 387.205 392.482 387.205 391.158V390.42C387.205 388.885 387.451 387.514 387.943 386.307C388.436 385.088 389.086 384.062 389.895 383.23C390.715 382.387 391.641 381.742 392.672 381.297C393.715 380.852 394.781 380.629 395.871 380.629C397.242 380.629 398.438 380.869 399.457 381.35C400.488 381.818 401.344 382.475 402.023 383.318C402.703 384.15 403.207 385.135 403.535 386.271C403.875 387.408 404.045 388.639 404.045 389.963V391.422H390.457C390.492 392.289 390.656 393.104 390.949 393.865C391.254 394.627 391.664 395.295 392.18 395.869C392.707 396.432 393.334 396.877 394.061 397.205C394.787 397.533 395.59 397.697 396.469 397.697C397.629 397.697 398.66 397.463 399.562 396.994C400.465 396.525 401.215 395.904 401.812 395.131L403.799 396.678C403.482 397.158 403.084 397.621 402.604 398.066C402.135 398.5 401.59 398.887 400.969 399.227C400.348 399.566 399.645 399.836 398.859 400.035C398.074 400.246 397.219 400.352 396.293 400.352ZM395.871 383.301C395.215 383.301 394.594 383.424 394.008 383.67C393.422 383.904 392.895 384.256 392.426 384.725C391.957 385.182 391.559 385.75 391.23 386.43C390.914 387.098 390.691 387.871 390.562 388.75H400.793V388.504C400.758 387.871 400.635 387.244 400.424 386.623C400.225 386.002 399.926 385.445 399.527 384.953C399.129 384.461 398.625 384.062 398.016 383.758C397.418 383.453 396.703 383.301 395.871 383.301ZM421.975 380.629C422.279 380.629 422.596 380.641 422.924 380.664C423.252 380.676 423.562 380.705 423.855 380.752C424.16 380.787 424.436 380.834 424.682 380.893C424.939 380.951 425.15 381.016 425.314 381.086L424.875 384.268C424.242 384.127 423.639 384.027 423.064 383.969C422.502 383.898 421.91 383.863 421.289 383.863C419.766 383.863 418.529 384.209 417.58 384.9C416.643 385.592 415.951 386.559 415.506 387.801V400H412.236V380.98H415.33L415.488 384.004C416.262 382.961 417.188 382.141 418.266 381.543C419.355 380.934 420.592 380.629 421.975 380.629Z" fill="black"/>
<path d="M2.79688 445.5V455H0.140625V432.156H6.40625C9.20833 432.156 11.276 432.693 12.6094 433.766C13.9531 434.839 14.625 436.453 14.625 438.609C14.625 441.63 13.0938 443.672 10.0312 444.734L16.2344 455H13.0938L7.5625 445.5H2.79688ZM2.79688 443.219H6.4375C8.3125 443.219 9.6875 442.849 10.5625 442.109C11.4375 441.359 11.875 440.24 11.875 438.75C11.875 437.24 11.4271 436.151 10.5312 435.484C9.64583 434.818 8.21875 434.484 6.25 434.484H2.79688V443.219ZM26.7656 455.312C24.2344 455.312 22.2344 454.542 20.7656 453C19.3073 451.458 18.5781 449.318 18.5781 446.578C18.5781 443.818 19.2552 441.625 20.6094 440C21.974 438.375 23.8021 437.562 26.0938 437.562C28.2396 437.562 29.9375 438.271 31.1875 439.688C32.4375 441.094 33.0625 442.953 33.0625 445.266V446.906H21.2656C21.3177 448.917 21.8229 450.443 22.7812 451.484C23.75 452.526 25.1094 453.047 26.8594 453.047C28.7031 453.047 30.526 452.661 32.3281 451.891V454.203C31.4115 454.599 30.5417 454.88 29.7188 455.047C28.9062 455.224 27.9219 455.312 26.7656 455.312ZM26.0625 439.734C24.6875 439.734 23.5885 440.182 22.7656 441.078C21.9531 441.974 21.474 443.214 21.3281 444.797H30.2812C30.2812 443.161 29.9167 441.911 29.1875 441.047C28.4583 440.172 27.4167 439.734 26.0625 439.734ZM40.0938 455H37.5V430.688H40.0938V455ZM48.1875 455H45.5938V437.875H48.1875V455ZM45.375 433.234C45.375 432.641 45.5208 432.208 45.8125 431.938C46.1042 431.656 46.4688 431.516 46.9062 431.516C47.3229 431.516 47.6823 431.656 47.9844 431.938C48.2865 432.219 48.4375 432.651 48.4375 433.234C48.4375 433.818 48.2865 434.255 47.9844 434.547C47.6823 434.828 47.3229 434.969 46.9062 434.969C46.4688 434.969 46.1042 434.828 45.8125 434.547C45.5208 434.255 45.375 433.818 45.375 433.234ZM64.2188 455L63.7031 452.562H63.5781C62.724 453.635 61.8698 454.365 61.0156 454.75C60.1719 455.125 59.1146 455.312 57.8438 455.312C56.1458 455.312 54.8125 454.875 53.8438 454C52.8854 453.125 52.4062 451.88 52.4062 450.266C52.4062 446.807 55.1719 444.995 60.7031 444.828L63.6094 444.734V443.672C63.6094 442.328 63.3177 441.339 62.7344 440.703C62.1615 440.057 61.2396 439.734 59.9688 439.734C58.5417 439.734 56.9271 440.172 55.125 441.047L54.3281 439.062C55.1719 438.604 56.0938 438.245 57.0938 437.984C58.1042 437.724 59.1146 437.594 60.125 437.594C62.1667 437.594 63.6771 438.047 64.6562 438.953C65.6458 439.859 66.1406 441.312 66.1406 443.312V455H64.2188ZM58.3594 453.172C59.974 453.172 61.2396 452.729 62.1562 451.844C63.0833 450.958 63.5469 449.719 63.5469 448.125V446.578L60.9531 446.688C58.8906 446.76 57.401 447.083 56.4844 447.656C55.5781 448.219 55.125 449.099 55.125 450.297C55.125 451.234 55.4062 451.948 55.9688 452.438C56.5417 452.927 57.3385 453.172 58.3594 453.172ZM79.4688 437.594C81.7188 437.594 83.4635 438.365 84.7031 439.906C85.9531 441.438 86.5781 443.609 86.5781 446.422C86.5781 449.234 85.9479 451.422 84.6875 452.984C83.4375 454.536 81.6979 455.312 79.4688 455.312C78.3542 455.312 77.3333 455.109 76.4062 454.703C75.4896 454.286 74.7188 453.651 74.0938 452.797H73.9062L73.3594 455H71.5V430.688H74.0938V436.594C74.0938 437.917 74.0521 439.104 73.9688 440.156H74.0938C75.3021 438.448 77.0938 437.594 79.4688 437.594ZM79.0938 439.766C77.3229 439.766 76.0469 440.276 75.2656 441.297C74.4844 442.307 74.0938 444.016 74.0938 446.422C74.0938 448.828 74.4948 450.552 75.2969 451.594C76.099 452.625 77.3854 453.141 79.1562 453.141C80.75 453.141 81.9375 452.562 82.7188 451.406C83.5 450.24 83.8906 448.568 83.8906 446.391C83.8906 444.161 83.5 442.5 82.7188 441.406C81.9375 440.312 80.7292 439.766 79.0938 439.766ZM93.7188 455H91.125V430.688H93.7188V455ZM106.453 455.312C103.922 455.312 101.922 454.542 100.453 453C98.9948 451.458 98.2656 449.318 98.2656 446.578C98.2656 443.818 98.9427 441.625 100.297 440C101.661 438.375 103.49 437.562 105.781 437.562C107.927 437.562 109.625 438.271 110.875 439.688C112.125 441.094 112.75 442.953 112.75 445.266V446.906H100.953C101.005 448.917 101.51 450.443 102.469 451.484C103.438 452.526 104.797 453.047 106.547 453.047C108.391 453.047 110.214 452.661 112.016 451.891V454.203C111.099 454.599 110.229 454.88 109.406 455.047C108.594 455.224 107.609 455.312 106.453 455.312ZM105.75 439.734C104.375 439.734 103.276 440.182 102.453 441.078C101.641 441.974 101.161 443.214 101.016 444.797H109.969C109.969 443.161 109.604 441.911 108.875 441.047C108.146 440.172 107.104 439.734 105.75 439.734ZM133.469 437.594C135.719 437.594 137.464 438.365 138.703 439.906C139.953 441.438 140.578 443.609 140.578 446.422C140.578 449.234 139.948 451.422 138.688 452.984C137.438 454.536 135.698 455.312 133.469 455.312C132.354 455.312 131.333 455.109 130.406 454.703C129.49 454.286 128.719 453.651 128.094 452.797H127.906L127.359 455H125.5V430.688H128.094V436.594C128.094 437.917 128.052 439.104 127.969 440.156H128.094C129.302 438.448 131.094 437.594 133.469 437.594ZM133.094 439.766C131.323 439.766 130.047 440.276 129.266 441.297C128.484 442.307 128.094 444.016 128.094 446.422C128.094 448.828 128.495 450.552 129.297 451.594C130.099 452.625 131.385 453.141 133.156 453.141C134.75 453.141 135.938 452.562 136.719 451.406C137.5 450.24 137.891 448.568 137.891 446.391C137.891 444.161 137.5 442.5 136.719 441.406C135.938 440.312 134.729 439.766 133.094 439.766ZM152.938 437.562C153.698 437.562 154.38 437.625 154.984 437.75L154.625 440.156C153.917 440 153.292 439.922 152.75 439.922C151.365 439.922 150.177 440.484 149.188 441.609C148.208 442.734 147.719 444.135 147.719 445.812V455H145.125V437.875H147.266L147.562 441.047H147.688C148.323 439.932 149.089 439.073 149.984 438.469C150.88 437.865 151.865 437.562 152.938 437.562ZM168.719 455L168.203 452.562H168.078C167.224 453.635 166.37 454.365 165.516 454.75C164.672 455.125 163.615 455.312 162.344 455.312C160.646 455.312 159.312 454.875 158.344 454C157.385 453.125 156.906 451.88 156.906 450.266C156.906 446.807 159.672 444.995 165.203 444.828L168.109 444.734V443.672C168.109 442.328 167.818 441.339 167.234 440.703C166.661 440.057 165.74 439.734 164.469 439.734C163.042 439.734 161.427 440.172 159.625 441.047L158.828 439.062C159.672 438.604 160.594 438.245 161.594 437.984C162.604 437.724 163.615 437.594 164.625 437.594C166.667 437.594 168.177 438.047 169.156 438.953C170.146 439.859 170.641 441.312 170.641 443.312V455H168.719ZM162.859 453.172C164.474 453.172 165.74 452.729 166.656 451.844C167.583 450.958 168.047 449.719 168.047 448.125V446.578L165.453 446.688C163.391 446.76 161.901 447.083 160.984 447.656C160.078 448.219 159.625 449.099 159.625 450.297C159.625 451.234 159.906 451.948 160.469 452.438C161.042 452.927 161.839 453.172 162.859 453.172ZM187.719 455V443.922C187.719 442.526 187.401 441.484 186.766 440.797C186.13 440.109 185.135 439.766 183.781 439.766C181.99 439.766 180.677 440.25 179.844 441.219C179.01 442.188 178.594 443.786 178.594 446.016V455H176V437.875H178.109L178.531 440.219H178.656C179.188 439.375 179.932 438.724 180.891 438.266C181.849 437.797 182.917 437.562 184.094 437.562C186.156 437.562 187.708 438.062 188.75 439.062C189.792 440.052 190.312 441.641 190.312 443.828V455H187.719ZM202.5 455.312C200.021 455.312 198.099 454.552 196.734 453.031C195.38 451.5 194.703 449.339 194.703 446.547C194.703 443.682 195.391 441.469 196.766 439.906C198.151 438.344 200.12 437.562 202.672 437.562C203.495 437.562 204.318 437.651 205.141 437.828C205.964 438.005 206.609 438.214 207.078 438.453L206.281 440.656C205.708 440.427 205.083 440.24 204.406 440.094C203.729 439.938 203.13 439.859 202.609 439.859C199.13 439.859 197.391 442.078 197.391 446.516C197.391 448.62 197.812 450.234 198.656 451.359C199.51 452.484 200.771 453.047 202.438 453.047C203.865 453.047 205.328 452.74 206.828 452.125V454.422C205.682 455.016 204.24 455.312 202.5 455.312ZM222.625 455V443.922C222.625 442.526 222.307 441.484 221.672 440.797C221.036 440.109 220.042 439.766 218.688 439.766C216.885 439.766 215.568 440.255 214.734 441.234C213.911 442.214 213.5 443.818 213.5 446.047V455H210.906V430.688H213.5V438.047C213.5 438.932 213.458 439.667 213.375 440.25H213.531C214.042 439.427 214.766 438.781 215.703 438.312C216.651 437.833 217.729 437.594 218.938 437.594C221.031 437.594 222.599 438.094 223.641 439.094C224.693 440.083 225.219 441.661 225.219 443.828V455H222.625ZM260.703 455V443.859C260.703 442.495 260.411 441.474 259.828 440.797C259.245 440.109 258.339 439.766 257.109 439.766C255.495 439.766 254.302 440.229 253.531 441.156C252.76 442.083 252.375 443.51 252.375 445.438V455H249.781V443.859C249.781 442.495 249.49 441.474 248.906 440.797C248.323 440.109 247.411 439.766 246.172 439.766C244.547 439.766 243.354 440.255 242.594 441.234C241.844 442.203 241.469 443.797 241.469 446.016V455H238.875V437.875H240.984L241.406 440.219H241.531C242.021 439.385 242.708 438.734 243.594 438.266C244.49 437.797 245.49 437.562 246.594 437.562C249.271 437.562 251.021 438.531 251.844 440.469H251.969C252.479 439.573 253.219 438.865 254.188 438.344C255.156 437.823 256.26 437.562 257.5 437.562C259.438 437.562 260.885 438.062 261.844 439.062C262.812 440.052 263.297 441.641 263.297 443.828V455H260.703ZM275.891 455.312C273.359 455.312 271.359 454.542 269.891 453C268.432 451.458 267.703 449.318 267.703 446.578C267.703 443.818 268.38 441.625 269.734 440C271.099 438.375 272.927 437.562 275.219 437.562C277.365 437.562 279.062 438.271 280.312 439.688C281.562 441.094 282.188 442.953 282.188 445.266V446.906H270.391C270.443 448.917 270.948 450.443 271.906 451.484C272.875 452.526 274.234 453.047 275.984 453.047C277.828 453.047 279.651 452.661 281.453 451.891V454.203C280.536 454.599 279.667 454.88 278.844 455.047C278.031 455.224 277.047 455.312 275.891 455.312ZM275.188 439.734C273.812 439.734 272.714 440.182 271.891 441.078C271.078 441.974 270.599 443.214 270.453 444.797H279.406C279.406 443.161 279.042 441.911 278.312 441.047C277.583 440.172 276.542 439.734 275.188 439.734ZM294.438 437.562C295.198 437.562 295.88 437.625 296.484 437.75L296.125 440.156C295.417 440 294.792 439.922 294.25 439.922C292.865 439.922 291.677 440.484 290.688 441.609C289.708 442.734 289.219 444.135 289.219 445.812V455H286.625V437.875H288.766L289.062 441.047H289.188C289.823 439.932 290.589 439.073 291.484 438.469C292.38 437.865 293.365 437.562 294.438 437.562ZM313.703 437.875V439.516L310.531 439.891C310.823 440.255 311.083 440.734 311.312 441.328C311.542 441.911 311.656 442.573 311.656 443.312C311.656 444.99 311.083 446.328 309.938 447.328C308.792 448.328 307.219 448.828 305.219 448.828C304.708 448.828 304.229 448.786 303.781 448.703C302.677 449.286 302.125 450.021 302.125 450.906C302.125 451.375 302.318 451.724 302.703 451.953C303.089 452.172 303.75 452.281 304.688 452.281H307.719C309.573 452.281 310.995 452.672 311.984 453.453C312.984 454.234 313.484 455.37 313.484 456.859C313.484 458.755 312.724 460.198 311.203 461.188C309.682 462.188 307.464 462.688 304.547 462.688C302.307 462.688 300.578 462.271 299.359 461.438C298.151 460.604 297.547 459.427 297.547 457.906C297.547 456.865 297.88 455.964 298.547 455.203C299.214 454.443 300.151 453.927 301.359 453.656C300.922 453.458 300.552 453.151 300.25 452.734C299.958 452.318 299.812 451.833 299.812 451.281C299.812 450.656 299.979 450.109 300.312 449.641C300.646 449.172 301.172 448.719 301.891 448.281C301.005 447.917 300.281 447.297 299.719 446.422C299.167 445.547 298.891 444.547 298.891 443.422C298.891 441.547 299.453 440.104 300.578 439.094C301.703 438.073 303.297 437.562 305.359 437.562C306.255 437.562 307.062 437.667 307.781 437.875H313.703ZM300.047 457.875C300.047 458.802 300.438 459.505 301.219 459.984C302 460.464 303.12 460.703 304.578 460.703C306.755 460.703 308.365 460.375 309.406 459.719C310.458 459.073 310.984 458.193 310.984 457.078C310.984 456.151 310.698 455.505 310.125 455.141C309.552 454.786 308.474 454.609 306.891 454.609H303.781C302.604 454.609 301.688 454.891 301.031 455.453C300.375 456.016 300.047 456.823 300.047 457.875ZM301.453 443.359C301.453 444.557 301.792 445.464 302.469 446.078C303.146 446.693 304.089 447 305.297 447C307.828 447 309.094 445.771 309.094 443.312C309.094 440.74 307.812 439.453 305.25 439.453C304.031 439.453 303.094 439.781 302.438 440.438C301.781 441.094 301.453 442.068 301.453 443.359ZM319.812 455H317.219V437.875H319.812V455ZM317 433.234C317 432.641 317.146 432.208 317.438 431.938C317.729 431.656 318.094 431.516 318.531 431.516C318.948 431.516 319.307 431.656 319.609 431.938C319.911 432.219 320.062 432.651 320.062 433.234C320.062 433.818 319.911 434.255 319.609 434.547C319.307 434.828 318.948 434.969 318.531 434.969C318.094 434.969 317.729 434.828 317.438 434.547C317.146 434.255 317 433.818 317 433.234ZM337.031 455V443.922C337.031 442.526 336.714 441.484 336.078 440.797C335.443 440.109 334.448 439.766 333.094 439.766C331.302 439.766 329.99 440.25 329.156 441.219C328.323 442.188 327.906 443.786 327.906 446.016V455H325.312V437.875H327.422L327.844 440.219H327.969C328.5 439.375 329.245 438.724 330.203 438.266C331.161 437.797 332.229 437.562 333.406 437.562C335.469 437.562 337.021 438.062 338.062 439.062C339.104 440.052 339.625 441.641 339.625 443.828V455H337.031ZM358.984 437.875V439.516L355.812 439.891C356.104 440.255 356.365 440.734 356.594 441.328C356.823 441.911 356.938 442.573 356.938 443.312C356.938 444.99 356.365 446.328 355.219 447.328C354.073 448.328 352.5 448.828 350.5 448.828C349.99 448.828 349.51 448.786 349.062 448.703C347.958 449.286 347.406 450.021 347.406 450.906C347.406 451.375 347.599 451.724 347.984 451.953C348.37 452.172 349.031 452.281 349.969 452.281H353C354.854 452.281 356.276 452.672 357.266 453.453C358.266 454.234 358.766 455.37 358.766 456.859C358.766 458.755 358.005 460.198 356.484 461.188C354.964 462.188 352.745 462.688 349.828 462.688C347.589 462.688 345.859 462.271 344.641 461.438C343.432 460.604 342.828 459.427 342.828 457.906C342.828 456.865 343.161 455.964 343.828 455.203C344.495 454.443 345.432 453.927 346.641 453.656C346.203 453.458 345.833 453.151 345.531 452.734C345.24 452.318 345.094 451.833 345.094 451.281C345.094 450.656 345.26 450.109 345.594 449.641C345.927 449.172 346.453 448.719 347.172 448.281C346.286 447.917 345.562 447.297 345 446.422C344.448 445.547 344.172 444.547 344.172 443.422C344.172 441.547 344.734 440.104 345.859 439.094C346.984 438.073 348.578 437.562 350.641 437.562C351.536 437.562 352.344 437.667 353.062 437.875H358.984ZM345.328 457.875C345.328 458.802 345.719 459.505 346.5 459.984C347.281 460.464 348.401 460.703 349.859 460.703C352.036 460.703 353.646 460.375 354.688 459.719C355.74 459.073 356.266 458.193 356.266 457.078C356.266 456.151 355.979 455.505 355.406 455.141C354.833 454.786 353.755 454.609 352.172 454.609H349.062C347.885 454.609 346.969 454.891 346.312 455.453C345.656 456.016 345.328 456.823 345.328 457.875ZM346.734 443.359C346.734 444.557 347.073 445.464 347.75 446.078C348.427 446.693 349.37 447 350.578 447C353.109 447 354.375 445.771 354.375 443.312C354.375 440.74 353.094 439.453 350.531 439.453C349.312 439.453 348.375 439.781 347.719 440.438C347.062 441.094 346.734 442.068 346.734 443.359ZM378.531 439.891H374.172V455H371.578V439.891H368.516V438.719L371.578 437.781V436.828C371.578 432.62 373.417 430.516 377.094 430.516C378 430.516 379.062 430.698 380.281 431.062L379.609 433.141C378.609 432.818 377.755 432.656 377.047 432.656C376.068 432.656 375.344 432.984 374.875 433.641C374.406 434.286 374.172 435.328 374.172 436.766V437.875H378.531V439.891ZM396.438 446.422C396.438 449.214 395.734 451.396 394.328 452.969C392.922 454.531 390.979 455.312 388.5 455.312C386.969 455.312 385.609 454.953 384.422 454.234C383.234 453.516 382.318 452.484 381.672 451.141C381.026 449.797 380.703 448.224 380.703 446.422C380.703 443.63 381.401 441.458 382.797 439.906C384.193 438.344 386.13 437.562 388.609 437.562C391.005 437.562 392.906 438.359 394.312 439.953C395.729 441.547 396.438 443.703 396.438 446.422ZM383.391 446.422C383.391 448.609 383.828 450.276 384.703 451.422C385.578 452.568 386.865 453.141 388.562 453.141C390.26 453.141 391.547 452.573 392.422 451.438C393.307 450.292 393.75 448.62 393.75 446.422C393.75 444.245 393.307 442.594 392.422 441.469C391.547 440.333 390.25 439.766 388.531 439.766C386.833 439.766 385.552 440.323 384.688 441.438C383.823 442.552 383.391 444.214 383.391 446.422ZM408.812 437.562C409.573 437.562 410.255 437.625 410.859 437.75L410.5 440.156C409.792 440 409.167 439.922 408.625 439.922C407.24 439.922 406.052 440.484 405.062 441.609C404.083 442.734 403.594 444.135 403.594 445.812V455H401V437.875H403.141L403.438 441.047H403.562C404.198 439.932 404.964 439.073 405.859 438.469C406.755 437.865 407.74 437.562 408.812 437.562ZM432.547 434.203C430.036 434.203 428.052 435.042 426.594 436.719C425.146 438.385 424.422 440.672 424.422 443.578C424.422 446.568 425.12 448.88 426.516 450.516C427.922 452.141 429.922 452.953 432.516 452.953C434.109 452.953 435.927 452.667 437.969 452.094V454.422C436.385 455.016 434.432 455.312 432.109 455.312C428.745 455.312 426.146 454.292 424.312 452.25C422.49 450.208 421.578 447.307 421.578 443.547C421.578 441.193 422.016 439.13 422.891 437.359C423.776 435.589 425.047 434.224 426.703 433.266C428.37 432.307 430.328 431.828 432.578 431.828C434.974 431.828 437.068 432.266 438.859 433.141L437.734 435.422C436.005 434.609 434.276 434.203 432.547 434.203ZM442.953 455V432.156H445.609V455H442.953ZM470.859 450.328C470.859 451.922 470.266 453.151 469.078 454.016C467.891 454.88 466.224 455.312 464.078 455.312C461.807 455.312 460.036 454.953 458.766 454.234V451.828C459.589 452.245 460.469 452.573 461.406 452.812C462.354 453.052 463.266 453.172 464.141 453.172C465.495 453.172 466.536 452.958 467.266 452.531C467.995 452.094 468.359 451.432 468.359 450.547C468.359 449.88 468.068 449.312 467.484 448.844C466.911 448.365 465.786 447.802 464.109 447.156C462.516 446.562 461.38 446.047 460.703 445.609C460.036 445.161 459.536 444.656 459.203 444.094C458.88 443.531 458.719 442.859 458.719 442.078C458.719 440.682 459.286 439.583 460.422 438.781C461.557 437.969 463.115 437.562 465.094 437.562C466.938 437.562 468.74 437.938 470.5 438.688L469.578 440.797C467.859 440.089 466.302 439.734 464.906 439.734C463.677 439.734 462.75 439.927 462.125 440.312C461.5 440.698 461.188 441.229 461.188 441.906C461.188 442.365 461.302 442.755 461.531 443.078C461.771 443.401 462.151 443.708 462.672 444C463.193 444.292 464.193 444.714 465.672 445.266C467.703 446.005 469.073 446.75 469.781 447.5C470.5 448.25 470.859 449.193 470.859 450.328ZM472.375 437.875H475.156L478.906 447.641C479.729 449.87 480.24 451.479 480.438 452.469H480.562C480.698 451.938 480.979 451.031 481.406 449.75C481.844 448.458 483.26 444.5 485.656 437.875H488.438L481.078 457.375C480.349 459.302 479.495 460.667 478.516 461.469C477.547 462.281 476.354 462.688 474.938 462.688C474.146 462.688 473.365 462.599 472.594 462.422V460.344C473.167 460.469 473.807 460.531 474.516 460.531C476.297 460.531 477.568 459.531 478.328 457.531L479.281 455.094L472.375 437.875ZM502.266 450.328C502.266 451.922 501.672 453.151 500.484 454.016C499.297 454.88 497.63 455.312 495.484 455.312C493.214 455.312 491.443 454.953 490.172 454.234V451.828C490.995 452.245 491.875 452.573 492.812 452.812C493.76 453.052 494.672 453.172 495.547 453.172C496.901 453.172 497.943 452.958 498.672 452.531C499.401 452.094 499.766 451.432 499.766 450.547C499.766 449.88 499.474 449.312 498.891 448.844C498.318 448.365 497.193 447.802 495.516 447.156C493.922 446.562 492.786 446.047 492.109 445.609C491.443 445.161 490.943 444.656 490.609 444.094C490.286 443.531 490.125 442.859 490.125 442.078C490.125 440.682 490.693 439.583 491.828 438.781C492.964 437.969 494.521 437.562 496.5 437.562C498.344 437.562 500.146 437.938 501.906 438.688L500.984 440.797C499.266 440.089 497.708 439.734 496.312 439.734C495.083 439.734 494.156 439.927 493.531 440.312C492.906 440.698 492.594 441.229 492.594 441.906C492.594 442.365 492.708 442.755 492.938 443.078C493.177 443.401 493.557 443.708 494.078 444C494.599 444.292 495.599 444.714 497.078 445.266C499.109 446.005 500.479 446.75 501.188 447.5C501.906 448.25 502.266 449.193 502.266 450.328ZM512.031 453.172C512.49 453.172 512.932 453.141 513.359 453.078C513.786 453.005 514.125 452.932 514.375 452.859V454.844C514.094 454.979 513.677 455.089 513.125 455.172C512.583 455.266 512.094 455.312 511.656 455.312C508.344 455.312 506.688 453.568 506.688 450.078V439.891H504.234V438.641L506.688 437.562L507.781 433.906H509.281V437.875H514.25V439.891H509.281V449.969C509.281 451 509.526 451.792 510.016 452.344C510.505 452.896 511.177 453.172 512.031 453.172ZM525.047 455.312C522.516 455.312 520.516 454.542 519.047 453C517.589 451.458 516.859 449.318 516.859 446.578C516.859 443.818 517.536 441.625 518.891 440C520.255 438.375 522.083 437.562 524.375 437.562C526.521 437.562 528.219 438.271 529.469 439.688C530.719 441.094 531.344 442.953 531.344 445.266V446.906H519.547C519.599 448.917 520.104 450.443 521.062 451.484C522.031 452.526 523.391 453.047 525.141 453.047C526.984 453.047 528.807 452.661 530.609 451.891V454.203C529.693 454.599 528.823 454.88 528 455.047C527.188 455.224 526.203 455.312 525.047 455.312ZM524.344 439.734C522.969 439.734 521.87 440.182 521.047 441.078C520.234 441.974 519.755 443.214 519.609 444.797H528.562C528.562 443.161 528.198 441.911 527.469 441.047C526.74 440.172 525.698 439.734 524.344 439.734ZM557.609 455V443.859C557.609 442.495 557.318 441.474 556.734 440.797C556.151 440.109 555.245 439.766 554.016 439.766C552.401 439.766 551.208 440.229 550.438 441.156C549.667 442.083 549.281 443.51 549.281 445.438V455H546.688V443.859C546.688 442.495 546.396 441.474 545.812 440.797C545.229 440.109 544.318 439.766 543.078 439.766C541.453 439.766 540.26 440.255 539.5 441.234C538.75 442.203 538.375 443.797 538.375 446.016V455H535.781V437.875H537.891L538.312 440.219H538.438C538.927 439.385 539.615 438.734 540.5 438.266C541.396 437.797 542.396 437.562 543.5 437.562C546.177 437.562 547.927 438.531 548.75 440.469H548.875C549.385 439.573 550.125 438.865 551.094 438.344C552.062 437.823 553.167 437.562 554.406 437.562C556.344 437.562 557.792 438.062 558.75 439.062C559.719 440.052 560.203 441.641 560.203 443.828V455H557.609ZM576.609 450.328C576.609 451.922 576.016 453.151 574.828 454.016C573.641 454.88 571.974 455.312 569.828 455.312C567.557 455.312 565.786 454.953 564.516 454.234V451.828C565.339 452.245 566.219 452.573 567.156 452.812C568.104 453.052 569.016 453.172 569.891 453.172C571.245 453.172 572.286 452.958 573.016 452.531C573.745 452.094 574.109 451.432 574.109 450.547C574.109 449.88 573.818 449.312 573.234 448.844C572.661 448.365 571.536 447.802 569.859 447.156C568.266 446.562 567.13 446.047 566.453 445.609C565.786 445.161 565.286 444.656 564.953 444.094C564.63 443.531 564.469 442.859 564.469 442.078C564.469 440.682 565.036 439.583 566.172 438.781C567.307 437.969 568.865 437.562 570.844 437.562C572.688 437.562 574.49 437.938 576.25 438.688L575.328 440.797C573.609 440.089 572.052 439.734 570.656 439.734C569.427 439.734 568.5 439.927 567.875 440.312C567.25 440.698 566.938 441.229 566.938 441.906C566.938 442.365 567.052 442.755 567.281 443.078C567.521 443.401 567.901 443.708 568.422 444C568.943 444.292 569.943 444.714 571.422 445.266C573.453 446.005 574.823 446.75 575.531 447.5C576.25 448.25 576.609 449.193 576.609 450.328Z" fill="#656565"/>
</svg>
